<svg width="337" height="337" viewBox="0 0 337 337" fill="none" xmlns="http://www.w3.org/2000/svg">
<path d="M168.5 31.5938C92.675 31.5938 31.5938 92.675 31.5938 168.5C31.5938 244.325 92.675 305.406 168.5 305.406C244.325 305.406 305.406 244.325 305.406 168.5C305.406 159.114 304.602 149.74 302.654 140.628C301.083 133.279 292.171 131.264 286.808 136.528C283.246 140.024 281.875 145.134 282.746 150.049C283.788 155.935 284.354 161.977 284.354 168.5C284.354 232.762 232.772 284.344 168.511 284.344C104.249 284.344 52.6562 232.762 52.6562 168.5C52.6562 104.238 104.238 52.6562 168.5 52.6562C196.266 52.6562 221.552 62.3767 240.846 78.3075C245.238 81.9333 251.739 81.9756 255.765 77.9488C259.917 73.7974 259.944 67.03 255.471 63.228C232.057 43.3277 201.548 31.5938 168.5 31.5938ZM294.875 84.2502C290.693 80.0682 283.913 80.0684 279.731 84.2505L168.5 195.492L130.987 157.97C126.806 153.788 120.025 153.787 115.843 157.969C111.662 162.151 111.662 168.931 115.843 173.112L160.928 218.197L161.592 218.831C165.457 222.524 171.543 222.524 175.408 218.831L176.072 218.197L294.875 99.3938C299.057 95.212 299.057 88.432 294.875 84.2502Z" fill="#E6E4F9"/>
</svg>
